<svg width="199" height="105" viewBox="0 0 199 105" fill="none" xmlns="http://www.w3.org/2000/svg">
<g clip-path="url(#clip0_98_11)">
<g opacity="0.5">
<path opacity="0.75" d="M52.1476 102.186V101.962C52.8857 101.927 53.6327 101.877 54.3841 101.81V102.034C53.6416 102.101 52.8901 102.15 52.1476 102.186ZM45.344 102.043C44.6014 101.976 43.8544 101.895 43.1074 101.797L43.1387 101.574C43.8678 101.672 44.6104 101.757 45.3484 101.819L45.344 102.043ZM56.5983 101.784L56.567 101.56C57.2961 101.462 58.0342 101.341 58.7633 101.212L58.8036 101.431C58.0745 101.565 57.3319 101.681 56.5983 101.784ZM40.9156 101.449C40.1865 101.319 39.4484 101.167 38.7238 101.002L38.773 100.783C39.4931 100.944 40.2267 101.096 40.9558 101.23L40.9156 101.449ZM60.9909 101.002L60.9417 100.783C61.6619 100.618 62.3865 100.435 63.0978 100.238L63.1559 100.452C62.4447 100.631 61.729 100.814 60.9909 100.98V101.002ZM36.5588 100.484C35.8431 100.287 35.1229 100.073 34.4162 99.8405L34.4877 99.6305C35.19 99.8583 35.9057 100.077 36.6169 100.269L36.5588 100.484ZM65.3075 99.7868L65.2359 99.5724C65.9382 99.3446 66.645 99.0989 67.3338 98.8353L67.4143 99.0453C66.7121 99.3089 66.0008 99.559 65.3075 99.7868ZM32.3004 99.081C31.6026 98.8219 30.9048 98.5405 30.2248 98.2502L30.3143 98.0447C30.9897 98.335 31.6876 98.612 32.3809 98.8711L32.3004 99.081ZM69.472 98.1876L69.3825 97.9866C70.0624 97.6962 70.7244 97.3835 71.4044 97.0619L71.4983 97.2629C70.8318 97.6069 70.1519 97.9196 69.472 98.2099V98.1876ZM28.1851 97.2942C27.5186 96.9725 26.8432 96.633 26.1946 96.2801L26.2974 96.0836C26.9505 96.432 27.6394 96.776 28.2835 97.0932L28.1851 97.2942ZM73.4843 96.2444L73.377 96.0479C74.0256 95.6949 74.6742 95.3286 75.3049 94.9489L75.4212 95.1366C74.786 95.5475 74.1374 95.9183 73.4843 96.2712V96.2444ZM24.2488 95.1723C23.6136 94.7926 22.9739 94.3905 22.3566 93.984L22.4774 93.7964C23.0947 94.2029 23.7299 94.605 24.3651 94.9802L24.2488 95.1723ZM77.3089 93.9483L77.1836 93.7607C77.7964 93.3542 78.4137 92.9298 79.0086 92.492L79.1428 92.6752C78.539 93.1398 77.9261 93.5686 77.3089 93.9751V93.9483ZM20.5003 92.7109C19.9009 92.2642 19.3015 91.8175 18.711 91.3708L18.8497 91.1965C19.4267 91.6433 20.0217 92.1123 20.639 92.5367L20.5003 92.7109ZM80.8874 91.3172L80.7487 91.1429C81.3257 90.6962 81.8983 90.2004 82.4529 89.7179L82.6006 89.8877C82.0727 90.4014 81.4957 90.8794 80.9142 91.344L80.8874 91.3172ZM17.0247 89.9502C16.4655 89.4588 15.9109 88.954 15.3786 88.4403L15.5307 88.2795C16.063 88.7888 16.6132 89.2935 17.1723 89.7805L17.0247 89.9502ZM84.2735 88.4046L84.1169 88.2438C84.6537 87.7345 85.1815 87.2029 85.6915 86.6713L85.8525 86.8232C85.3426 87.3593 84.8103 87.8909 84.2735 88.4046ZM13.7951 86.8634C13.2852 86.3274 12.7797 85.7734 12.2876 85.215L12.4576 85.0721C12.9452 85.626 13.4507 86.1755 13.9606 86.7071L13.7951 86.8634ZM87.36 85.1749L87.19 85.0274C87.6731 84.4735 88.1517 83.9017 88.6124 83.321L88.7914 83.4595C88.3261 84.0402 87.843 84.6165 87.36 85.1749ZM10.8697 83.5041C10.4224 82.9279 9.95268 82.3293 9.52774 81.7173L9.70666 81.5877C10.154 82.1819 10.6013 82.776 11.0486 83.3746L10.8697 83.5041ZM90.1556 81.6815L89.9767 81.552C90.424 80.9579 90.8356 80.3414 91.2426 79.7249L91.4305 79.8456C91.0055 80.4665 90.5761 81.0874 90.1422 81.6815H90.1556ZM8.24395 79.8947C7.8369 79.2782 7.43432 78.6439 7.0541 78.0096L7.24645 77.8934C7.62666 78.5233 8.02477 79.1576 8.43182 79.7741L8.24395 79.8947ZM92.5935 77.956L92.4012 77.8398C92.7769 77.2099 93.1482 76.5577 93.4971 75.9055L93.6939 76.0128C93.3539 76.665 92.9827 77.3216 92.5935 77.956ZM5.9403 76.0753C5.58692 75.4231 5.24696 74.7352 4.9249 74.0919L5.12619 73.9936C5.44378 74.6547 5.78374 75.3337 6.13712 75.9681L5.9403 76.0753ZM94.7227 74.0204L94.5214 73.9221C94.8435 73.2521 95.1521 72.582 95.4384 71.8941L95.6486 71.9834C95.3579 72.6624 95.0448 73.3459 94.7227 74.0204ZM4.0258 72.0638C3.73058 71.3893 3.45325 70.6924 3.1938 70L3.40404 69.924C3.65901 70.612 3.94081 71.3044 4.22709 71.9789L4.0258 72.0638ZM96.4985 69.9062L96.2883 69.8258C96.5477 69.1334 96.7982 68.4276 97.0219 67.7218L97.2366 67.7932C96.9861 68.499 96.7401 69.2093 96.4762 69.9062H96.4985ZM2.43338 67.9004C2.20077 67.1902 1.98606 66.471 1.78925 65.7607L2.00396 65.7026C2.20077 66.4084 2.41548 67.1232 2.64361 67.829L2.43338 67.9004ZM97.8539 65.6669L97.6347 65.6088C97.8315 64.8985 98.0104 64.1704 98.1759 63.4512L98.3907 63.5003C98.2296 64.2106 98.0462 64.9387 97.8539 65.6669ZM1.23458 63.6075C1.06907 62.8794 0.916989 62.1468 0.787268 61.4186L1.00645 61.3784C1.13617 62.1021 1.28826 62.8347 1.45376 63.5584L1.23458 63.6075ZM98.8559 61.3025L98.6367 61.2623C98.7664 60.5341 98.8827 59.7926 98.9766 59.0644L99.2003 59.0957C99.0795 59.8283 98.9677 60.5699 98.8559 61.3025ZM0.447312 59.2029C0.348903 58.4658 0.263914 57.7198 0.20129 56.9694H0.420473C0.48757 57.702 0.572559 58.4435 0.670967 59.1761L0.447312 59.2029ZM99.424 56.8755H99.2003C99.2629 56.1429 99.3121 55.4014 99.3434 54.642H99.5671C99.5358 55.3925 99.4866 56.1429 99.424 56.8755ZM0.0492043 54.7581C0.0178925 54.0166 0 53.2661 0 52.5246H0.223656C0.223656 53.2616 0.223656 54.0076 0.27286 54.7581H0.0492043ZM0.27286 50.291H0.0492043C0.0805161 49.5494 0.12972 48.8034 0.192344 48.0574H0.416C0.353376 48.8213 0.304172 49.5852 0.27286 50.3044V50.291ZM99.1869 47.9681C99.1198 47.231 99.0348 46.4895 98.9364 45.7613L99.1556 45.73C99.254 46.4627 99.339 47.2087 99.4061 47.9636L99.1869 47.9681ZM0.662021 45.8819L0.447312 45.8507C0.54572 45.1136 0.662021 44.372 0.791741 43.6484L1.01092 43.6886C0.894623 44.4078 0.76043 45.1493 0.662021 45.8819ZM98.5875 43.5814C98.4533 42.8532 98.3012 42.1206 98.1402 41.4059L98.3549 41.3567C98.5204 42.0715 98.6725 42.8085 98.8022 43.5412L98.5875 43.5814ZM1.44929 41.5086L1.23011 41.4595C1.39561 40.7403 1.57901 40.0121 1.78925 39.3108L2.00396 39.3688C1.78925 40.0702 1.61032 40.7939 1.44929 41.5086ZM97.5944 39.275C97.3932 38.5603 97.1784 37.8411 96.9503 37.1487L97.165 37.0772C97.3932 37.7785 97.6123 38.4933 97.8092 39.2125L97.5944 39.275ZM2.62572 37.2246L2.41548 37.1576C2.64361 36.4563 2.88963 35.746 3.15355 35.0447L3.36378 35.1251C3.09987 35.8175 2.85385 36.5278 2.62572 37.2246ZM96.2122 35.0268C95.9528 34.3433 95.6755 33.6509 95.3847 32.9719L95.5905 32.887C95.8812 33.566 96.163 34.2584 96.4225 34.9509L96.2122 35.0268ZM4.19131 33.0568L3.98555 32.9674C4.28077 32.284 4.58942 31.6005 4.91148 30.9349L5.11277 31.0287C4.79518 31.7166 4.47312 32.3778 4.19131 33.0568ZM94.4633 30.9572C94.1412 30.2916 93.8012 29.6171 93.4523 28.9828L93.6492 28.8755C93.9981 29.5233 94.338 30.2157 94.6646 30.859L94.4633 30.9572ZM6.12817 29.0364L5.93135 28.9292C6.28025 28.277 6.65152 27.6248 7.03621 26.986L7.22856 27.1021C6.84387 27.7498 6.47707 28.402 6.12817 29.0364ZM92.352 27.044C91.9673 26.4097 91.5692 25.7754 91.1666 25.1678L91.35 25.0427C91.757 25.6547 92.1596 26.2891 92.5398 26.9279L92.352 27.044ZM8.41393 25.2304L8.22606 25.1098C8.63311 24.4933 9.06253 23.8768 9.5009 23.2738L9.67982 23.4033C9.24593 24.0019 8.82098 24.6184 8.41393 25.2304ZM89.9096 23.3586C89.4623 22.76 89.015 22.1659 88.5677 21.5941L88.7421 21.4512C89.1895 22.0274 89.6368 22.6216 90.0841 23.238L89.9096 23.3586ZM11.0307 21.6343L10.8563 21.4958C11.3036 20.9151 11.8046 20.3389 12.2876 19.7849L12.4576 19.9323C11.9745 20.4818 11.4959 21.0581 11.0307 21.6343ZM87.1184 19.8921C86.6308 19.3337 86.1254 18.7843 85.6154 18.2527L85.7765 18.0964C86.2909 18.6324 86.7963 19.1863 87.2884 19.7447L87.1184 19.8921ZM13.9606 18.2884L13.7996 18.1366C14.3095 17.6005 14.8418 17.0689 15.3786 16.5597L15.5307 16.7205C14.9984 17.2297 14.4705 17.7569 13.9606 18.2884ZM84.0409 16.6847C83.5086 16.171 82.9539 15.6662 82.3993 15.1838L82.5469 15.014C83.1015 15.5009 83.6607 16.0102 84.1975 16.5195L84.0409 16.6847ZM17.1723 15.2195L17.0247 15.0498C17.5838 14.5628 18.1609 14.0804 18.7379 13.6203L18.881 13.7945C18.304 14.2546 17.7314 14.7415 17.1723 15.2195ZM80.6905 13.7588C80.1135 13.3121 79.5141 12.8653 78.9013 12.4186L79.031 12.2399C79.6304 12.6867 80.2298 13.1334 80.8203 13.5801L80.6905 13.7588ZM20.6479 12.4499L20.5137 12.2667C21.1131 11.82 21.7304 11.4046 22.3477 10.9936L22.4729 11.1812C21.8556 11.5877 21.2428 12.0121 20.6479 12.4499ZM77.0897 11.1678C76.4724 10.7613 75.8372 10.3637 75.202 9.9885L75.3183 9.79642C75.9535 10.1761 76.5932 10.5737 77.2104 10.9847L77.0897 11.1678ZM24.3516 9.99744L24.2353 9.82769C24.8705 9.44798 25.5191 9.07721 26.1722 8.72877L26.2796 8.92533C25.631 9.25143 24.9824 9.6222 24.3516 9.99744ZM73.2652 8.86725C72.6166 8.51882 71.9501 8.17932 71.2791 7.85768L71.3775 7.65666C72.0485 7.97829 72.7194 8.3178 73.3725 8.6707L73.2652 8.86725ZM28.2567 7.89342L28.1806 7.6924C28.8471 7.37076 29.5226 7.05806 30.207 6.7677L30.2964 6.97319C29.6031 7.26355 28.9232 7.59412 28.2567 7.89342ZM69.2528 6.93745C68.5684 6.64709 67.8706 6.36566 67.1817 6.11103L67.2578 5.90108C67.9511 6.16017 68.6534 6.43713 69.3378 6.73196L69.2528 6.93745ZM32.3362 6.14677L32.2556 5.93681C32.949 5.67772 33.6602 5.42756 34.367 5.19527L34.434 5.40969C33.7318 5.63752 33.025 5.88768 32.3362 6.14677ZM65.0749 5.36055C64.3726 5.1372 63.6569 4.91384 62.9412 4.72622L63.0038 4.5118C63.7195 4.70835 64.4397 4.92277 65.142 5.1506L65.0749 5.36055ZM36.5632 4.77089L36.5051 4.552C37.2208 4.35545 37.9499 4.1723 38.6701 4.00701L38.7238 4.2259C38.0215 4.39119 37.2789 4.57434 36.5632 4.77089ZM60.7852 4.20357C60.065 4.03828 59.3314 3.89087 58.6068 3.75685L58.6426 3.53796C59.3717 3.66751 60.1097 3.81492 60.8344 3.98468L60.7852 4.20357ZM40.9022 3.77919L40.8619 3.5737C41.591 3.44415 42.3336 3.32354 43.0672 3.22526L43.0985 3.44862C42.3649 3.5335 41.6268 3.64964 40.9022 3.77919ZM56.406 3.41735C55.6724 3.32354 54.9299 3.23866 54.1963 3.17612V2.95277C54.9343 3.01531 55.6813 3.10018 56.4328 3.19846L56.406 3.41735ZM45.3082 3.18506V2.9617C46.0463 2.8947 46.7977 2.84556 47.5447 2.81429V3.03318C46.7933 3.06891 46.0463 3.12699 45.3082 3.18506ZM51.9776 3.02871C51.2574 2.99744 50.5283 2.98404 49.8037 2.98404H49.7545V2.76068H49.8037C50.5328 2.76068 51.2664 2.76068 51.9866 2.80535L51.9776 3.02871Z" fill="black"/>
</g>
<g opacity="0.5">
<path opacity="0.75" d="M149.196 102.239C148.449 102.239 147.698 102.239 146.96 102.19V101.967C147.698 101.998 148.445 102.016 149.196 102.016H149.304V102.239H149.196ZM151.536 102.186V101.962C152.274 101.927 153.021 101.877 153.772 101.81V102.034C153.03 102.101 152.278 102.15 151.536 102.186ZM144.732 102.043C143.99 101.976 143.243 101.895 142.496 101.797L142.527 101.574C143.256 101.672 143.999 101.757 144.737 101.819L144.732 102.043ZM155.986 101.779L155.955 101.56C156.689 101.462 157.427 101.341 158.151 101.212L158.192 101.431C157.454 101.565 156.72 101.681 155.986 101.779ZM140.304 101.449C139.575 101.319 138.837 101.167 138.112 101.002L138.161 100.783C138.881 100.944 139.615 101.096 140.344 101.23L140.304 101.449ZM160.379 101.002L160.33 100.783C161.055 100.618 161.779 100.435 162.486 100.238L162.549 100.452C161.836 100.64 161.113 100.816 160.379 100.98V101.002ZM135.947 100.484C135.231 100.287 134.511 100.073 133.804 99.8405L133.876 99.6305C134.578 99.8583 135.294 100.077 136.005 100.269L135.947 100.484ZM164.687 99.8092L164.615 99.5948C165.317 99.3669 166.024 99.1213 166.713 98.8577L166.794 99.0676C166.1 99.3089 165.389 99.559 164.687 99.7869V99.8092ZM131.693 99.1034C130.991 98.8443 130.293 98.5629 129.613 98.2725L129.702 98.067C130.378 98.3574 131.076 98.6343 131.769 98.8934L131.693 99.1034ZM168.86 98.21L168.771 98.0089C169.451 97.7186 170.113 97.4059 170.793 97.0842L170.891 97.2853C170.224 97.6069 169.531 97.9196 168.86 98.21ZM127.578 97.3165C126.907 96.9949 126.236 96.6554 125.583 96.3025L125.69 96.1059C126.339 96.4544 127.01 96.7983 127.672 97.1155L127.578 97.3165ZM172.873 96.2668L172.765 96.0702C173.414 95.7173 174.062 95.351 174.698 94.9713L174.809 95.1589C174.174 95.5475 173.526 95.9183 172.873 96.2712V96.2668ZM123.637 95.1946C123.002 94.8149 122.362 94.4129 121.745 94.0064L121.866 93.8188C122.483 94.2253 123.118 94.6273 123.753 95.0026L123.637 95.1946ZM176.688 93.9751L176.567 93.7875C177.18 93.381 177.793 92.9566 178.388 92.5188L178.522 92.702C177.932 93.1398 177.314 93.5686 176.688 93.9751ZM119.88 92.7377C119.28 92.291 118.681 91.8443 118.09 91.3976L118.229 91.2234C118.806 91.6701 119.401 92.1391 120.018 92.5635L119.88 92.7377ZM180.267 91.344L180.128 91.1698C180.705 90.723 181.282 90.2272 181.832 89.7447L181.98 89.9145C181.461 90.3969 180.884 90.8794 180.302 91.344H180.267ZM116.377 89.9502C115.818 89.4588 115.263 88.9541 114.731 88.4403L114.883 88.2795C115.415 88.7888 115.966 89.2936 116.525 89.7805L116.377 89.9502ZM183.626 88.4046L183.474 88.2438C184.006 87.7345 184.534 87.2029 185.044 86.6714L185.205 86.8232C184.74 87.3593 184.198 87.8909 183.662 88.4046H183.626ZM113.17 86.8634C112.655 86.3274 112.15 85.7735 111.662 85.2151L111.828 85.0721C112.315 85.626 112.821 86.1755 113.331 86.7116L113.17 86.8634ZM186.73 85.1749L186.56 85.0274C187.048 84.4735 187.526 83.8973 187.987 83.321L188.162 83.4595C187.714 84.0402 187.236 84.6165 186.748 85.1749H186.73ZM110.24 83.5042C109.793 82.9279 109.323 82.3293 108.898 81.7173L109.077 81.5878C109.524 82.1819 109.972 82.776 110.419 83.3746L110.24 83.5042ZM189.526 81.6816L189.347 81.552C189.794 80.9579 190.206 80.3414 190.613 79.725L190.801 79.8456C190.394 80.4665 189.964 81.0874 189.53 81.6816H189.526ZM107.614 79.8947C107.207 79.2782 106.805 78.6439 106.424 78.0096L106.617 77.8934C106.997 78.5233 107.395 79.1576 107.802 79.7741L107.614 79.8947ZM191.991 77.9515L191.798 77.8354C192.174 77.2055 192.545 76.5533 192.894 75.9011L193.091 76.0083C192.742 76.665 192.371 77.3216 191.995 77.956L191.991 77.9515ZM105.328 76.0753C104.975 75.4231 104.635 74.7352 104.313 74.0919L104.514 73.9981C104.836 74.6592 105.176 75.3382 105.525 75.9726L105.328 76.0753ZM194.133 74.016L193.932 73.9221C194.254 73.2521 194.563 72.582 194.853 71.8941L195.059 71.9834C194.746 72.6624 194.433 73.3459 194.133 74.016ZM103.414 72.0683C103.123 71.3893 102.841 70.6969 102.582 70L102.792 69.9241C103.052 70.612 103.329 71.3044 103.615 71.979L103.414 72.0683ZM195.891 69.9062L195.681 69.8258C195.94 69.1334 196.186 68.4276 196.41 67.7218L196.625 67.7932C196.37 68.499 196.128 69.2093 195.869 69.9062H195.891ZM101.822 67.9005C101.589 67.1902 101.374 66.471 101.177 65.7607L101.392 65.7026C101.589 66.4084 101.804 67.1232 102.032 67.829L101.822 67.9005ZM197.264 65.6669L197.045 65.6088C197.242 64.8941 197.425 64.1704 197.586 63.4512L197.806 63.5003C197.618 64.2106 197.434 64.9387 197.264 65.6669ZM100.645 63.6075C100.48 62.8794 100.328 62.1468 100.198 61.4186L100.417 61.3784C100.547 62.1021 100.699 62.8347 100.864 63.5584L100.645 63.6075ZM198.235 61.3114L198.016 61.2757C198.146 60.5475 198.262 59.806 198.36 59.0779L198.58 59.1091C198.472 59.8283 198.356 60.5699 198.222 61.298L198.235 61.3114ZM99.8489 59.2163C99.7505 58.4793 99.6655 57.7333 99.6029 56.9828H99.8265C99.8892 57.7154 99.9742 58.4569 100.073 59.1895L99.8489 59.2163ZM198.826 56.889H198.602C198.664 56.1564 198.714 55.4103 198.745 54.6554H198.969C198.924 55.3925 198.875 56.143 198.812 56.8756L198.826 56.889ZM198.79 52.4218C198.79 51.6803 198.79 50.9298 198.736 50.1883H198.96C198.996 50.9253 199.013 51.6758 199.013 52.4218H198.79ZM99.661 50.3044H99.4374C99.4687 49.5673 99.5179 48.8169 99.585 48.0708H99.8042C99.7505 48.8213 99.6923 49.5852 99.661 50.3044ZM198.575 47.9815C198.508 47.2444 198.423 46.5029 198.325 45.7747L198.544 45.7435C198.642 46.4761 198.727 47.2221 198.794 47.977L198.575 47.9815ZM100.05 45.882L99.831 45.8507C99.9294 45.1136 100.046 44.3721 100.175 43.6484L100.395 43.6886C100.265 44.4078 100.149 45.1493 100.05 45.882ZM197.976 43.5814C197.841 42.8532 197.689 42.1206 197.528 41.4059L197.747 41.3567C197.909 42.0715 198.061 42.8086 198.195 43.5412L197.976 43.5814ZM100.837 41.5086L100.618 41.4595C100.784 40.7403 100.967 40.0121 101.164 39.2974L101.379 39.3555C101.182 40.0702 100.998 40.7939 100.837 41.5086ZM196.983 39.2751C196.786 38.5558 196.567 37.8411 196.338 37.1442L196.553 37.0772C196.781 37.7741 197 38.4933 197.197 39.2125L196.983 39.2751ZM102.014 37.2246L101.804 37.1576C102.032 36.4563 102.278 35.746 102.542 35.0447L102.752 35.1251C102.488 35.8175 102.242 36.5278 102.014 37.2246ZM195.6 35.0268C195.341 34.3433 195.064 33.6509 194.773 32.9719L194.979 32.8871C195.269 33.5661 195.551 34.2585 195.811 34.9509L195.6 35.0268ZM103.579 33.0568L103.374 32.9675C103.669 32.284 103.978 31.6005 104.3 30.9349L104.501 31.0287C104.183 31.7167 103.87 32.3778 103.579 33.0568ZM193.851 30.9573C193.529 30.2917 193.189 29.6171 192.84 28.9828L193.037 28.8756C193.386 29.5233 193.726 30.1889 194.053 30.859L193.851 30.9573ZM105.516 29.0364L105.32 28.9292C105.668 28.277 106.04 27.6248 106.424 26.986L106.617 27.1021C106.232 27.7498 105.865 28.4021 105.516 29.0364ZM191.74 27.044C191.355 26.4097 190.957 25.7754 190.555 25.1678L190.738 25.0428C191.145 25.6548 191.548 26.2891 191.932 26.9279L191.74 27.044ZM107.802 25.2304L107.614 25.1098C108.021 24.4933 108.451 23.8768 108.889 23.2738L109.068 23.4033C108.634 24.0019 108.209 24.6184 107.802 25.2304ZM189.284 23.3587C188.846 22.763 188.399 22.1749 187.942 21.5941L188.117 21.4512C188.564 22.0275 189.034 22.6216 189.459 23.238L189.284 23.3587ZM110.419 21.6388L110.244 21.4959C110.692 20.9151 111.193 20.3389 111.676 19.7849L111.846 19.9324C111.381 20.4818 110.884 21.0581 110.419 21.6388ZM186.529 19.8922C186.041 19.3338 185.536 18.7843 185.026 18.2527L185.187 18.0964C185.701 18.6324 186.207 19.1864 186.699 19.7447L186.529 19.8922ZM113.349 18.2885L113.17 18.1366C113.68 17.6005 114.212 17.0689 114.749 16.5597L114.901 16.7205C114.387 17.2297 113.859 17.7569 113.349 18.2885ZM183.429 16.6848C182.897 16.171 182.342 15.6663 181.787 15.1838L181.935 15.014C182.49 15.501 183.049 16.0102 183.586 16.5195L183.429 16.6848ZM116.56 15.2195L116.413 15.0498C116.972 14.5629 117.549 14.0804 118.126 13.6203L118.269 13.7945C117.692 14.2546 117.12 14.7416 116.56 15.2195ZM180.079 13.7588C179.502 13.3121 178.902 12.8654 178.289 12.4186L178.419 12.2355C179.019 12.6822 179.618 13.1289 180.208 13.5756L180.079 13.7588ZM120.036 12.4499L119.902 12.2668C120.501 11.82 121.119 11.4046 121.736 10.9981L121.861 11.1812C121.244 11.5878 120.631 12.0121 120.036 12.4499ZM176.478 11.1678C175.861 10.7613 175.225 10.3638 174.59 9.98852L174.706 9.79644C175.342 10.1761 175.981 10.5737 176.599 10.9847L176.478 11.1678ZM123.74 10.0198L123.624 9.82771C124.259 9.448 124.912 9.07723 125.565 8.72879L125.668 8.92534C125.019 9.25145 124.353 9.62222 123.74 9.99746V10.0198ZM172.662 8.86727C172.014 8.51884 171.347 8.17933 170.676 7.8577L170.775 7.65668C171.446 7.97831 172.117 8.31781 172.77 8.67072L172.662 8.86727ZM127.645 7.89344L127.551 7.69242C128.217 7.37078 128.893 7.05808 129.577 6.76772L129.667 6.97321C128.991 7.26357 128.311 7.59414 127.645 7.89344ZM168.636 6.93747C167.952 6.64711 167.254 6.36568 166.565 6.11105L166.641 5.90109C167.335 6.16019 168.037 6.43715 168.721 6.73198L168.636 6.93747ZM131.72 6.14679L131.639 5.93683C132.333 5.67774 133.039 5.42758 133.751 5.19529L133.818 5.40971C133.12 5.63753 132.404 5.88769 131.724 6.14679H131.72ZM164.463 5.36057C163.761 5.13721 163.045 4.91386 162.334 4.72624L162.392 4.51182C163.108 4.70837 163.828 4.92279 164.53 5.15062L164.463 5.36057ZM135.951 4.75751L135.893 4.53862C136.609 4.34206 137.338 4.15891 138.058 3.99363L138.112 4.21252C137.392 4.3912 136.667 4.57436 135.951 4.77091V4.75751ZM160.173 4.19018C159.453 4.0249 158.72 3.87748 157.995 3.74347L158.031 3.52458C158.76 3.65413 159.498 3.80154 160.223 3.97129L160.173 4.19018ZM140.29 3.7658L140.25 3.57372C140.979 3.44417 141.722 3.32356 142.455 3.22528L142.487 3.44864C141.753 3.53351 141.015 3.64966 140.29 3.77921V3.7658ZM155.794 3.40397C155.061 3.31016 154.318 3.22528 153.584 3.16274V2.93938C154.323 3.00192 155.07 3.0868 155.821 3.18508L155.794 3.40397ZM144.696 3.17168V2.94832C145.434 2.88131 146.186 2.83217 146.933 2.8009V3.02426C146.181 3.06893 145.434 3.127 144.696 3.18508V3.17168Z" fill="black"/>
</g>
<path d="M146.32 0V2.29164C135.487 2.92534 125.148 7.02921 116.835 13.9945C108.522 20.9598 102.678 30.4156 100.171 40.9592V5.66879C100.856 5.50471 101.457 5.09536 101.859 4.51836C102.262 3.94136 102.439 3.23682 102.356 2.53831C102.274 1.8398 101.937 1.19588 101.411 0.728639C100.884 0.261396 100.204 0.00330949 99.5 0.00330949C98.7957 0.00330949 98.1158 0.261396 97.5894 0.728639C97.0629 1.19588 96.7264 1.8398 96.6437 2.53831C96.561 3.23682 96.7378 3.94136 97.1406 4.51836C97.5433 5.09536 98.1441 5.50471 98.829 5.66879V49.6299H96.6193V55.3925H98.7351C98.0181 67.3616 92.9338 78.6533 84.4439 87.1318C75.954 95.6104 64.6471 100.688 52.662 101.404V99.291H46.9319V105.036H52.6844V102.744C63.5174 102.111 73.8572 98.0062 82.1697 91.0398C90.4821 84.0735 96.3242 74.6165 98.829 64.0721V99.3625C98.1441 99.5266 97.5433 99.9359 97.1406 100.513C96.7378 101.09 96.561 101.794 96.6437 102.493C96.7264 103.191 97.0629 103.835 97.5894 104.303C98.1158 104.77 98.7957 105.028 99.5 105.028C100.204 105.028 100.884 104.77 101.411 104.303C101.937 103.835 102.274 103.191 102.356 102.493C102.439 101.794 102.262 101.09 101.859 100.513C101.457 99.9359 100.856 99.5266 100.171 99.3625V55.3925H102.376V49.6299H100.26C100.977 37.6608 106.062 26.3691 114.552 17.8905C123.042 9.41194 134.348 4.33444 146.334 3.61838V5.73133H152.086V0H146.32ZM51.3424 103.66H48.2739V100.595H51.3424V103.66ZM97.9612 2.87237C97.9612 2.56932 98.0512 2.27308 98.2198 2.02111C98.3884 1.76913 98.628 1.57274 98.9084 1.45677C99.1887 1.3408 99.4972 1.31046 99.7948 1.36958C100.092 1.4287 100.366 1.57463 100.58 1.78892C100.795 2.00321 100.941 2.27622 101 2.57344C101.06 2.87067 101.029 3.17875 100.913 3.45873C100.797 3.7387 100.6 3.978 100.348 4.14637C100.096 4.31473 99.799 4.40459 99.4955 4.40459C99.089 4.40342 98.6994 4.24161 98.4119 3.95451C98.1245 3.66742 97.9624 3.27838 97.9612 2.87237ZM101.03 102.128C101.03 102.431 100.94 102.727 100.771 102.979C100.603 103.231 100.363 103.427 100.083 103.543C99.8023 103.659 99.4938 103.69 99.1962 103.63C98.8986 103.571 98.6252 103.425 98.4106 103.211C98.196 102.997 98.0499 102.724 97.9907 102.427C97.9315 102.129 97.9619 101.821 98.078 101.541C98.1942 101.261 98.3908 101.022 98.6431 100.854C98.8954 100.685 99.1921 100.595 99.4955 100.595C99.9028 100.595 100.294 100.757 100.582 101.044C100.87 101.331 101.033 101.721 101.034 102.128H101.03ZM101.03 54.0345H97.9612V50.97H101.03V54.0345ZM150.744 4.40459H147.675V1.34014H150.744V4.40459Z" fill="black"/>
</g>
<defs>
<clipPath id="clip0_98_11">
<rect width="199" height="105" fill="white"/>
</clipPath>
</defs>
</svg>
