<svg width="250" height="25" viewBox="0 0 250 25" fill="none" xmlns="http://www.w3.org/2000/svg">
<path d="M187.481 0H0V25H187.481V0Z" fill="black"/>
<path d="M249.375 0.625V24.375H0.625V0.625H249.375ZM250 0H0V25H250V0Z" fill="black"/>
<path d="M108.806 18.8625C108.856 17.366 109.026 15.8759 109.312 14.4062C109.574 13.1255 109.979 11.8781 110.519 10.6875C111.092 9.44487 111.787 8.26202 112.594 7.15625H106.037V5.90625H114.3V6.8C113.598 7.70126 112.971 8.65864 112.425 9.6625C111.944 10.5364 111.551 11.4554 111.25 12.4063C110.965 13.3804 110.756 14.375 110.625 15.3813C110.487 16.4271 110.385 17.5875 110.319 18.8625H108.806Z" fill="white"/>
<path d="M120.9 19.1063C120.282 19.116 119.666 19.0296 119.075 18.85C118.59 18.6997 118.13 18.4763 117.713 18.1875C117.346 17.9336 117.001 17.6493 116.681 17.3375L117.438 16.3563C117.854 16.7544 118.315 17.1026 118.813 17.3938C119.412 17.7264 120.09 17.8885 120.775 17.8625C121.297 17.8701 121.811 17.7362 122.263 17.475C122.708 17.2228 123.074 16.8503 123.319 16.4C123.586 15.8985 123.719 15.3367 123.706 14.7688C123.731 14.3708 123.675 13.972 123.541 13.5961C123.408 13.2203 123.201 12.8751 122.931 12.5813C122.658 12.3151 122.332 12.1083 121.975 11.9739C121.618 11.8394 121.237 11.7802 120.856 11.8C120.451 11.7881 120.048 11.856 119.669 12C119.285 12.1608 118.919 12.3597 118.575 12.5938L117.763 12.0813L118.188 5.875H124.563V7.125H119.494L119.125 11.175C119.439 11.0066 119.767 10.8665 120.106 10.7563C120.461 10.6518 120.83 10.6013 121.2 10.6063C121.902 10.5948 122.597 10.7445 123.231 11.0438C123.832 11.3377 124.333 11.8003 124.675 12.375C125.058 13.0794 125.243 13.8739 125.213 14.675C125.237 15.5162 125.02 16.3468 124.588 17.0688C124.204 17.7043 123.653 18.2213 122.994 18.5625C122.35 18.9113 121.632 19.0979 120.9 19.1063Z" fill="white"/>
<path d="M130.931 13.55C130.366 13.5582 129.813 13.3827 129.356 13.05C128.873 12.6811 128.508 12.1794 128.306 11.6063C128.046 10.8703 127.923 10.0929 127.944 9.31253C127.869 8.20857 128.158 7.1105 128.769 6.18753C129.021 5.8488 129.348 5.57366 129.725 5.38411C130.102 5.19455 130.519 5.09583 130.941 5.09583C131.363 5.09583 131.779 5.19455 132.156 5.38411C132.533 5.57366 132.861 5.8488 133.112 6.18753C133.715 7.11334 134.001 8.21027 133.925 9.31253C133.946 10.0929 133.823 10.8703 133.562 11.6063C133.354 12.1793 132.985 12.6803 132.5 13.05C132.045 13.3831 131.495 13.5586 130.931 13.55ZM130.931 12.6125C131.211 12.6087 131.484 12.528 131.721 12.3792C131.959 12.2304 132.15 12.0192 132.275 11.7688C132.662 11.0106 132.839 10.1624 132.787 9.31253C132.843 8.46646 132.665 7.62141 132.275 6.86878C132.148 6.62363 131.956 6.41809 131.72 6.27462C131.484 6.13115 131.214 6.05527 130.937 6.05527C130.661 6.05527 130.391 6.13115 130.155 6.27462C129.919 6.41809 129.727 6.62363 129.6 6.86878C129.207 7.62069 129.028 8.46586 129.081 9.31253C129.031 10.163 129.21 11.0113 129.6 11.7688C129.725 12.0169 129.914 12.2265 130.149 12.3751C130.383 12.5237 130.654 12.6058 130.931 12.6125ZM131.281 19.1063L138.669 5.24378H139.706L132.319 19.1063H131.281ZM140.112 19.1063C139.543 19.1171 138.986 18.9416 138.525 18.6063C138.053 18.232 137.698 17.7312 137.5 17.1625C137.24 16.4266 137.117 15.6491 137.137 14.8688C137.062 13.7665 137.347 12.6696 137.95 11.7438C138.203 11.4013 138.532 11.123 138.912 10.9312C139.292 10.7394 139.712 10.6395 140.138 10.6395C140.563 10.6395 140.983 10.7394 141.363 10.9312C141.743 11.123 142.072 11.4013 142.325 11.7438C142.928 12.6696 143.213 13.7665 143.138 14.8688C143.157 15.6501 143.03 16.4281 142.763 17.1625C142.557 17.7338 142.193 18.2346 141.713 18.6063C141.25 18.9472 140.687 19.1232 140.112 19.1063ZM140.112 18.1688C140.392 18.1652 140.664 18.0845 140.9 17.9356C141.136 17.7867 141.327 17.5754 141.45 17.325C141.827 16.5634 141.999 15.717 141.95 14.8688C142.003 14.0263 141.83 13.1849 141.45 12.4313C141.326 12.184 141.135 11.9762 140.899 11.831C140.664 11.6858 140.392 11.6089 140.116 11.6089C139.839 11.6089 139.568 11.6858 139.332 11.831C139.096 11.9762 138.906 12.184 138.781 12.4313C138.388 13.1807 138.208 14.0241 138.262 14.8688C138.212 15.7192 138.391 16.5675 138.781 17.325C138.905 17.5736 139.095 17.7835 139.329 17.9322C139.564 18.0809 139.835 18.1627 140.112 18.1688Z" fill="white"/>
</svg>
